# xmcd
#
# Track frame offsets:
#	150
#	3505
#	23527
#	42250
#	63922
#	67210
#	88075
#	108030
#	128002
#	133102
#	153717
#	174935
#	196562
#	219017
#	240092
#	257055
#
# Disc length: 3490 seconds
#
# Revision: 4
# Processed by: cddbd v1.5.2PL0 Copyright (c) Steve Scherf et al.
# Submitted via: audiograbber 1.83.01
#
DISCID=c40da010
DTITLE=Syleena Johnson - Chapter 1:  Love, Pain and Forgiveness
DYEAR=2001
DGENRE=R&B
TTITLE0=And Then...(Interlude)
TTITLE1=The Beginning (Intro)
TTITLE2=I am Your Woman
TTITLE3=You Said (Feat. Liberty City)
TTITLE4=Baby I'm So Confused
TTITLE5=He's Gonna Do You In (Feat .Buddy Guy)
TTITLE6=Meanwhile...(Interlude)
TTITLE7=Everybody Wants Something
TTITLE8=You Ain't Right
TTITLE9=You Got Me Spinning
TTITLE10=Ain't No Love
TTITLE11=Hit On Me
TTITLE12=One Day
TTITLE13=I'd Rather Be Wrong
TTITLE14=All Of Me
TTITLE15=The End (Outro)
EXTD=
EXTT0=
EXTT1=
EXTT2=
EXTT3=
EXTT4=
EXTT5=
EXTT6=
EXTT7=
EXTT8=
EXTT9=
EXTT10=
EXTT11=
EXTT12=
EXTT13=
EXTT14=
EXTT15=
PLAYORDER=
